<?xml version="1.0"?>
<svg xmlns="http://www.w3.org/2000/svg" xmlns:xlink="http://www.w3.org/1999/xlink" xmlns:svgjs="http://svgjs.com/svgjs" version="1.1" width="512" height="512" x="0" y="0" viewBox="0 0 512 512" style="enable-background:new 0 0 512 512" xml:space="preserve" class=""><g><path xmlns="http://www.w3.org/2000/svg" d="m466 362h-30c-32.699219 0-66.898438 10.800781-99.300781 30.902344 6-.601563 12.300781-.902344 18.300781-.902344h157v-332h-46zm0 0" fill="#ffffff" data-original="#000000" style="" class=""/><path xmlns="http://www.w3.org/2000/svg" d="m256 455.03125c-5.238281-2.59375-39.574219-33.03125-99.082031-33.03125h-156.917969v60h156.917969c10.328125 0 23.351562 4.644531 39.785156 14.179688 17.828125 10.339843 38.335937 15.820312 59.296875 15.820312s41.46875-5.480469 59.296875-15.820312c16.4375-9.535157 29.457031-14.179688 39.785156-14.179688h156.917969v-60h-156.917969c-59.019531 0-94.074219 30.550781-99.082031 33.03125zm0 0" fill="#ffffff" data-original="#000000" style="" class=""/><path xmlns="http://www.w3.org/2000/svg" d="m241 412.097656v-331.9375c-25.554688-12.53125-51.152344-20.160156-84-20.160156h-157v332h157c35.855469 0 58.851562 8.003906 84 20.097656zm-196-291.097656h151v30h-151zm0 61h151v30h-151zm0 60h151v30h-151zm0 60h151v30h-151zm0 0" fill="#ffffff" data-original="#000000" style="" class=""/><path xmlns="http://www.w3.org/2000/svg" d="m436 332c0-122.921875 0-210.554688 0-332-56.324219 0-115.539062 27.183594-165 75.035156v331.988282c49.476562-47.851563 108.753906-75.023438 165-75.023438zm0 0" fill="#ffffff" data-original="#000000" style="" class=""/></g></svg>
