<?xml version="1.0"?>
<svg xmlns="http://www.w3.org/2000/svg" xmlns:xlink="http://www.w3.org/1999/xlink" xmlns:svgjs="http://svgjs.com/svgjs" version="1.1" width="512" height="512" x="0" y="0" viewBox="0 0 441.438 441" style="enable-background:new 0 0 512 512" xml:space="preserve" class=""><g><path xmlns="http://www.w3.org/2000/svg" d="m414.632812 122.128906h-125.460937c-5.523437 0-10-4.476562-10-10v-81.910156c-.019531-16.558594-13.4375-29.980469-30-30h-249.171875v225.722656h23.523438c4.996093-28.726562 29.929687-49.699218 59.089843-49.699218 29.160157 0 54.09375 20.972656 59.089844 49.699218h145.398437c4.996094-28.730468 29.929688-49.703125 59.089844-49.703125s54.09375 20.972657 59.085938 49.703125h36.160156v-65.210937c-.015625-8.144531-3.324219-15.933594-9.175781-21.597657zm0 0" fill="#ffffff" data-original="#000000" style="" class=""/><path xmlns="http://www.w3.org/2000/svg" d="m370.894531 61.152344c-5.546875-8.378906-14.933593-13.414063-24.988281-13.398438h-46.730469v54.375h98.617188zm0 0" fill="#ffffff" data-original="#000000" style="" class=""/><path xmlns="http://www.w3.org/2000/svg" d="m386.179688 236.230469c0 22.085937-17.902344 39.988281-39.988282 39.988281-22.085937 0-39.988281-17.902344-39.988281-39.988281 0-22.085938 17.902344-39.988281 39.988281-39.988281 22.085938 0 39.988282 17.902343 39.988282 39.988281zm0 0" fill="#ffffff" data-original="#000000" style="" class=""/><path xmlns="http://www.w3.org/2000/svg" d="m122.09375 229.828125c3.539062 21.800781-11.265625 42.34375-33.066406 45.878906-21.804688 3.539063-42.34375-11.265625-45.882813-33.066406-3.539062-21.800781 11.265625-42.34375 33.070313-45.882813 21.800781-3.535156 42.339844 11.269532 45.878906 33.070313zm0 0" fill="#ffffff" data-original="#000000" style="" class=""/></g></svg>
