<?xml version="1.0" encoding="iso-8859-1"?>
<!-- Generator: Adobe Illustrator 19.0.0, SVG Export Plug-In . SVG Version: 6.00 Build 0)  -->
<svg version="1.1" id="Capa_1" xmlns="http://www.w3.org/2000/svg" xmlns:xlink="http://www.w3.org/1999/xlink" x="0px" y="0px"
	 viewBox="0 0 512 512" style="enable-background:new 0 0 512 512;" xml:space="preserve">
<path style="fill:#FFD422;" d="M43.377,47.371C86.098-6.65,164.802-15.837,218.823,26.889c7.789,6.161,9.109,17.468,2.95,25.257
	L89.127,219.878c-6.16,7.789-17.467,9.109-25.256,2.949C9.85,180.1,0.657,101.39,43.377,47.371z"/>
<path style="fill:#FFEB99;" d="M59.59,61.011C95.754,15.282,162.142,7.532,207.873,43.7c4.305,3.405,8.272,7.078,11.9,10.977
	L90.332,218.354c-4.629-2.631-9.117-5.647-13.423-9.052C31.18,173.133,23.425,106.741,59.59,61.011z"/>
<path style="fill:#FFDE55;" d="M111.44,25.567l43.633,110.922L37.047,119.637c1.327-20.666,8.725-41.154,22.542-58.625
	S91.637,31.619,111.44,25.567z"/>
<path style="fill:#D1E7F8;" d="M490.534,116.593c-3.649-4.034-8.835-6.336-14.274-6.336h-330.06c-5.44,0-10.626,2.302-14.274,6.336
	c-3.648,4.034-5.42,9.425-4.874,14.836l36.567,363.252c0.99,9.833,9.266,17.318,19.149,17.318h256.926
	c9.884,0,18.159-7.485,19.149-17.318l36.567-363.252C495.952,126.018,494.181,120.627,490.534,116.593z"/>
<path style="fill:#B9D8F4;" d="M242.441,494.682L205.874,131.43c-0.545-5.411,1.227-10.802,4.874-14.836
	c3.649-4.034,8.835-6.336,14.274-6.336h-78.823c-5.44,0-10.626,2.302-14.274,6.336c-3.648,4.034-5.42,9.425-4.874,14.836
	l36.567,363.252c0.99,9.833,9.266,17.318,19.149,17.318h78.823C251.706,512,243.43,504.515,242.441,494.682z"/>
<path style="fill:#FFD422;" d="M191.559,310.399c36.932,41.74,100.935,45.648,142.676,8.711c6.019-5.326,6.581-14.522,1.256-20.539
	L220.82,168.969c-5.325-6.019-14.52-6.58-20.538-1.254C158.54,204.651,154.628,268.659,191.559,310.399z"/>
<path style="fill:#FFEB99;" d="M204.049,298.652c31.263,35.334,85.252,38.631,120.586,7.363c3.326-2.943,6.369-6.089,9.125-9.401
	l-111.9-126.467c-3.623,2.333-7.115,4.969-10.441,7.913C176.086,209.327,172.786,263.319,204.049,298.652z"/>
<path style="fill:#FFDE55;" d="M247.527,324.975l30.301-91.573l-94.612,18.889c1.995,16.639,8.888,32.862,20.833,46.362
	C215.995,312.152,231.256,320.97,247.527,324.975z"/>
<path style="fill:#FF5023;" d="M441.213,296.256c-2.761-3.053-6.685-4.795-10.801-4.795H192.047c-4.117,0-8.04,1.742-10.802,4.795
	c-2.761,3.053-4.101,7.132-3.69,11.227l15.967,158.616c0.749,7.442,7.012,13.106,14.491,13.106h206.43
	c7.478,0,13.742-5.664,14.491-13.106L444.9,307.483C445.314,303.388,443.973,299.309,441.213,296.256z"/>
<path style="fill:#FF3501;" d="M266.977,466.1L251.01,307.484c-0.413-4.096,0.928-8.175,3.69-11.228
	c2.762-3.053,6.685-4.795,10.802-4.795h-73.454c-4.117,0-8.04,1.742-10.802,4.795c-2.761,3.053-4.101,7.132-3.69,11.228
	L193.523,466.1c0.749,7.442,7.012,13.106,14.491,13.106h73.454C273.989,479.205,267.726,473.541,266.977,466.1z"/>
<path style="fill:#DDFFFB;" d="M287.246,359.999l-54.499-54.499c-7.721-7.721-7.721-20.355,0-28.076l54.499-54.499
	c7.721-7.721,20.356-7.721,28.076,0l54.499,54.499c7.721,7.721,7.721,20.356,0,28.076l-54.499,54.499
	C307.601,367.719,294.966,367.719,287.246,359.999z"/>
<path style="fill:#FF9478;" d="M377.198,293.787c-2.326-1.493-5.043-2.326-7.86-2.326h-144.16c0,3.994,1.515,7.986,4.544,11.015
	l60.545,60.545c6.058,6.058,15.972,6.058,22.031,0l60.545-60.545C375.283,300.037,376.723,296.972,377.198,293.787z"/>
<path style="fill:#FFFFFF;" d="M348.319,359.999l-54.499-54.499c-7.721-7.721-7.721-20.355,0-28.076l54.499-54.499
	c7.721-7.721,20.356-7.721,28.076,0l54.499,54.499c7.721,7.721,7.721,20.356,0,28.076l-54.499,54.499
	C368.674,367.719,356.039,367.719,348.319,359.999z"/>
<path style="fill:#FFBCAB;" d="M438.27,293.787c-2.326-1.493-5.043-2.326-7.86-2.326H286.252c0,3.994,1.514,7.986,4.544,11.015
	l60.545,60.545c6.058,6.058,15.972,6.058,22.03,0l60.545-60.545C436.356,300.037,437.795,296.972,438.27,293.787z"/>
<g>
	<path style="fill:#FF3501;" d="M406.554,396.225c-4.291-0.562-7.446-4.276-7.012-8.582l0.497-4.939
		c0.434-4.306,4.269-7.438,8.582-7.012c4.306,0.434,7.446,4.276,7.012,8.582l-0.497,4.939
		C414.729,393.251,412.939,397.061,406.554,396.225z"/>
	<path style="fill:#FF3501;" d="M401.365,455.695c-0.262,0-0.527-0.014-0.794-0.04c-4.307-0.434-7.446-4.276-7.012-8.582
		l3.746-37.214c0.434-4.306,4.274-7.443,8.582-7.012c4.307,0.434,7.446,4.276,7.012,8.582l-3.746,37.214
		C408.746,452.683,405.34,455.695,401.365,455.695z"/>
</g>
<g>
</g>
<g>
</g>
<g>
</g>
<g>
</g>
<g>
</g>
<g>
</g>
<g>
</g>
<g>
</g>
<g>
</g>
<g>
</g>
<g>
</g>
<g>
</g>
<g>
</g>
<g>
</g>
<g>
</g>
</svg>
