<svg id="Capa_1" enable-background="new 0 0 512 512" height="512" viewBox="0 0 512 512" width="512" xmlns="http://www.w3.org/2000/svg"><g><g><g><g><path d="m73.836 190.864c-11.153 0-21.356-6.959-24.731-17.564-.657-2.065-1.026-4.179-1.026-6.355 0-17.64 24.273-31.241 29.456-47.168 5.37-16.498-6.063-41.702 3.95-55.434 10.123-13.875 37.741-10.757 51.649-20.856 13.765-9.989 19.278-37.223 35.827-42.58 15.955-5.17 36.388 13.458 54.07 13.458s38.115-18.628 54.07-13.458c16.549 5.357 22.062 32.591 35.827 42.58 13.908 10.099 41.526 6.981 51.649 20.856 10.013 13.732-1.419 38.935 3.95 55.434 5.183 15.928 29.456 29.528 29.456 47.168 0 2.176-.369 4.291-1.026 6.355-3.375 10.604-13.578 17.564-24.731 17.564z" fill="#f2d59c"/></g><g><path d="m246.195 16.359c16.549 5.357 22.062 32.591 35.827 42.58 13.908 10.099 41.526 6.981 51.649 20.857 10.013 13.732-1.419 38.935 3.95 55.434 5.183 15.928 29.456 29.528 29.456 47.168 0 2.177-.369 4.291-1.026 6.356-.23.722-.497 1.424-.789 2.111h6.963c11.153 0 21.356-6.959 24.731-17.563.657-2.065 1.026-4.179 1.026-6.356 0-17.64-24.273-31.24-29.456-47.168-5.37-16.498 6.063-41.702-3.95-55.434-10.123-13.875-37.741-10.758-51.649-20.857-13.765-9.989-19.278-37.223-35.827-42.58-12.602-4.084-27.998 6.68-42.625 11.384z" fill="#ecc372"/></g><path d="m315.546 190.864c.143-1.998.209-4.007.209-6.037 0-51.076-41.515-92.492-92.725-92.492s-92.725 41.416-92.725 92.492c0 2.031.066 4.04.209 6.037z" fill="#f9f0d9"/></g><g><g><path d="m139.775 351.432c-11.153 0-21.356-6.959-24.731-17.564-.657-2.065-1.026-4.179-1.026-6.355 0-17.64 24.273-31.241 29.456-47.168 5.37-16.498-6.063-41.702 3.95-55.434 10.123-13.875 37.741-10.757 51.649-20.856 13.765-9.989 19.278-37.223 35.827-42.58 15.955-5.17 36.388 13.458 54.07 13.458s38.115-18.628 54.07-13.458c16.549 5.357 22.062 32.591 35.827 42.58 13.908 10.099 41.526 6.981 51.649 20.856 10.013 13.732-1.419 38.935 3.95 55.434 5.183 15.928 29.456 29.528 29.456 47.168 0 2.176-.369 4.291-1.026 6.355-3.375 10.604-13.578 17.564-24.731 17.564z" fill="#eecb81"/></g><g><path d="m312.134 176.928c16.549 5.357 22.062 32.591 35.827 42.579 13.908 10.099 41.526 6.982 51.649 20.857 10.013 13.732-1.419 38.935 3.95 55.434 5.183 15.928 29.456 29.528 29.456 47.168 0 2.176-.369 4.291-1.026 6.355-.23.722-.497 1.424-.789 2.111h6.963c11.153 0 21.356-6.959 24.731-17.563.657-2.064 1.026-4.179 1.026-6.355 0-17.64-24.273-31.24-29.456-47.168-5.37-16.499 6.063-41.702-3.95-55.434-10.123-13.875-37.741-10.758-51.649-20.857-13.765-9.989-19.278-37.223-35.827-42.579-12.365-4.007-27.42 6.28-41.8 11.112z" fill="#e4bb70"/></g><path d="m381.485 351.432c.143-1.998.209-4.007.209-6.037 0-51.076-41.515-92.492-92.725-92.492s-92.725 41.416-92.725 92.492c0 2.031.066 4.04.209 6.037z" fill="#f9f0d9"/></g><g><g><path d="m73.836 512c-11.153 0-21.356-6.959-24.731-17.564-.657-2.065-1.026-4.179-1.026-6.355 0-17.64 24.273-31.241 29.456-47.168 5.37-16.498-6.063-41.702 3.95-55.434 10.123-13.875 37.741-10.757 51.649-20.856 13.765-9.989 19.278-37.223 35.827-42.58 15.955-5.17 36.388 13.458 54.07 13.458s38.115-18.628 54.07-13.458c16.549 5.357 22.062 32.591 35.827 42.58 13.908 10.099 41.526 6.981 51.649 20.856 10.013 13.732-1.419 38.935 3.95 55.434 5.183 15.928 29.456 29.528 29.456 47.168 0 2.176-.369 4.291-1.026 6.355-3.376 10.605-13.579 17.564-24.732 17.564z" fill="#f2d59c"/></g><g><path d="m246.195 337.496c16.549 5.357 22.062 32.591 35.827 42.58 13.908 10.099 41.526 6.981 51.649 20.856 10.013 13.732-1.419 38.936 3.95 55.434 5.183 15.928 29.456 29.528 29.456 47.168 0 2.177-.369 4.291-1.026 6.356-.23.722-.497 1.424-.789 2.111h6.963c11.153 0 21.356-6.959 24.731-17.563.657-2.065 1.026-4.179 1.026-6.356 0-17.64-24.273-31.24-29.456-47.168-5.37-16.498 6.063-41.702-3.95-55.434-10.123-13.875-37.741-10.758-51.649-20.856-13.765-9.989-19.278-37.223-35.827-42.58-12.535-4.062-27.835 6.566-42.393 11.308z" fill="#ecc372"/></g><path d="m315.546 512c.143-1.998.209-4.007.209-6.037 0-51.076-41.515-92.492-92.725-92.492s-92.725 41.416-92.725 92.492c0 2.031.066 4.04.209 6.037z" fill="#f9f0d9"/></g></g></g></svg>