<svg id="Artwork" xmlns="http://www.w3.org/2000/svg" viewBox="0 0 1817.38 773.31"><title>apple-pay-payment-mark2</title><path d="M682.85,537.69C704,510.51,719.1,474.26,714.57,438c-31.72,1.51-69.48,21.14-92.13,46.82-19.64,22.66-37.76,60.42-33.23,95.15,36.25,4.54,71-15.1,93.64-42.29m31.72,51.36c-51.35-3-95.15,28.69-119.32,28.69s-61.92-27.18-102.7-27.18c-52.87,1.51-101.2,30.21-128.39,78.54-54.37,95.15-15.1,235.62,39.27,312.65,25.68,37.75,57.4,80,98.18,78.53,39.27-1.51,54.37-25.67,101.19-25.67s60.42,25.67,102.71,24.16,69.48-37.75,95.15-77c30.21-43.81,42.29-86.1,42.29-87.61-1.51-1.51-83.07-31.71-83.07-125.36-1.51-78.54,63.44-116.3,66.46-117.81-34.74-54.37-92.13-60.41-111.77-61.92" transform="translate(-338.09 -438.01)"/><path d="M1158.62,481.81c111.77,0,188.8,77,188.8,187.29,0,111.77-78.54,188.79-191.82,188.79H1033.26v194.84H944.15V481.81ZM1033.26,783.89h101.2c77,0,120.83-42.29,120.83-113.28,0-72.5-43.8-113.28-120.83-113.28H1031.75V783.89Zm336.81,152.54c0-72.49,55.89-117.81,155.57-123.85l114.79-6V774.82c0-46.82-31.72-74-83.07-74-49.84,0-80,24.16-87.6,60.41H1388.2c4.53-75.52,69.48-131.4,172.18-131.4,101.2,0,166.14,52.86,166.14,137.44v287H1645v-68h-1.51c-24.16,46.82-77,75.52-131.4,75.52-84.58,0-142-51.36-142-125.37Zm270.36-37.76V865.45l-102.7,6c-51.36,3-80,25.67-80,61.92s30.2,60.42,75.52,60.42c60.41,0,107.23-40.78,107.23-95.16ZM1802,1208.3v-69.48c6,1.51,21.15,1.51,27.19,1.51,39.27,0,60.41-16.61,74-58.9,0-1.51,7.55-25.68,7.55-25.68l-151-416.86h92.14l105.72,339.83h1.51l105.73-339.83h90.62L1999.9,1078.41c-36.25,101.19-77,132.91-163.12,132.91-6-1.51-27.19-1.51-34.74-3Z" transform="translate(-338.09 -438.01)"/></svg>