<svg id="Слой_1" data-name="Слой 1" xmlns="http://www.w3.org/2000/svg" viewBox="0 0 1588.49 987.13"><defs><style>.cls-1{fill:#6fb52a;}.cls-2{fill:#fea323;}</style></defs><title>LOGONEW2</title><g id="Слой_1-2" data-name="Слой 1-2"><path class="cls-1" d="M138.67,344.38,57.43,357q-11.7,1.81-13.5-9.87L.25,65.41Q-1.56,53.72,10.12,51.9L101.3,37.77q10.52-1.64,15.38,6.59l81.49,128,2.34-.36q6.54-27.34,38.9-146.67,2.15-9.31,12.67-11L343.25.25q11.69-1.81,13.5,9.87l43.68,281.7q1.81,11.69-9.87,13.5l-81.24,12.59q-11.7,1.81-13.5-9.87L290,270.63Q283.77,230.31,279.2,170l-1.76.27-16.24,69L253.55,271q-1.56,9.23-12.66,10.94L193,289.25q-11.1,1.71-15.38-6.59l-16.9-27.91L124.32,194l-1.75.27q13.92,58.89,20.17,99.21l5.8,37.41Q150.36,342.57,138.67,344.38Z" transform="translate(-0.01 0)"/><path class="cls-1" d="M434.89,101.89q34.51-20.55,82.6-20.56,88.43,0,88.42,93.46V275.62q0,7-6.6,8.53-35.64,10.47-81.42,10.47-95.4,0-95.4-68.64,0-59,84.15-58.94A180,180,0,0,1,534.18,169v-.72q0-12.41-5.82-19T507,142.65q-26,0-43.82,8.92-7,3.88-10.47-2.71l-17.85-37.67Q431.05,104.6,434.89,101.89Zm60.53,121.36q0,15.92,22.1,15.9a92.36,92.36,0,0,0,16.68-1.55V211.25a81,81,0,0,0-17.07-1.94Q495.41,209.3,495.42,223.25Z" transform="translate(-0.01 0)"/><path class="cls-1" d="M722,339.19l-68.77-2.78q-9.9-.39-9.5-10.29l9.61-238.48q.4-9.9,10.3-9.5l77.18,3.11q8.91.36,11.58,7.9l46.27,118.33,2,.08q9.78-21.41,55.65-114.22Q859.6,86,868.51,86.4l77.18,3.11q9.9.39,9.5,10.29l-9.64,238.45q-.39,9.9-10.29,9.49L866.49,345c-6.61-.27-9.77-3.69-9.5-10.3L858.27,303q1.37-34.14,7.37-84.45l-1.49-.06-24.48,54-11.41,24.82q-2.78,7.32-12.17,6.94l-40.57-1.63q-9.4-.39-11.58-7.9l-9.37-25.66-20-55.81-1.49-.06q1.92,50.63.55,84.76l-1.27,31.67Q731.9,339.59,722,339.19Z" transform="translate(-0.01 0)"/><path class="cls-1" d="M1074.42,266.14l-63.3,6q-8.91.84-9.75-8.08L981.17,49.21q-.84-8.93,8.08-9.76l62.85-5.9q8.91-.84,9.76,8.07l4.9,52.16q1.68,17.82,4.13,53.57l.9-.08,22.8-58.81,21.84-54.67a10.69,10.69,0,0,1,9.67-7.2l64.63-6.08q8.91-.82,9.75,8.08l20.2,214.86q.84,8.91-8.07,9.75l-62.86,5.91q-8.91.84-9.75-8.08L1135,198q-.8-8.46-3.73-54.06l-.89.09A545.08,545.08,0,0,1,1107,206.46l-22.5,52.48Q1082,265.43,1074.42,266.14Z" transform="translate(-0.01 0)"/><path class="cls-1" d="M1319.27,307.84h-64q-8.83,0-8.83-8.83V86.25q0-8.84,8.83-8.83h64q8.84,0,8.83,8.83v69.31h40.62V86.25q0-8.84,8.83-8.83h64q8.82,0,8.83,8.83v212.8q0,8.83-8.83,8.83h-64q-8.83,0-8.83-8.83V227.93H1328.1V299Q1328.1,307.84,1319.27,307.84Z" transform="translate(-0.01 0)"/><path class="cls-1" d="M220.64,388.6l233.25-30.81q11.06-1.46,12.51,9.6l35.19,266.45q1.46,11.07-9.6,12.52l-80.1,10.58q-11.07,1.47-12.52-9.6l-25-189-50.85,6.71,25,189.06q1.47,11.07-9.59,12.52l-80.16,10.58q-11.07,1.47-12.52-9.6L211.07,401.16Q209.6,390.07,220.64,388.6Z" transform="translate(-0.01 0)"/><path class="cls-1" d="M665.14,444.92v29.54q0,6.42-6.42,6.42H574v1.61Q574,503,595.78,503q20.55,0,36.61-9,5.13-3.21,8.67,1.6L660.32,522c2.36,3.43,2,6.42-1,9q-26.66,20.55-65.83,20.55-35.64,0-57.47-18.46t-21.84-52.18v-36q0-35,20.87-52.5t56.52-17.5q34.35,0,53.94,17.18T665.14,444.92Zm-56.83-3.54q0-19.26-17.34-19.26-17,0-17,19.26v5.14h34.36Z" transform="translate(-0.01 0)"/><path class="cls-1" d="M902.11,642,829,630.43a10.58,10.58,0,0,1-9.1-7.72l-23.55-72.36-13.22,12.71L775.26,613q-1.39,8.76-10.14,7.37L703,610.5q-8.76-1.38-7.37-10.14l33.36-211q1.38-8.76,10.14-7.37l62.15,9.82q8.75,1.4,7.37,10.14l-11.42,72.3,50.35-68.75a10.57,10.57,0,0,1,11-4.54l69.6,11q5.25.82,6.51,4.17t-2.49,7.23l-74.72,81.05,52,128c1.29,3.19,1.25,5.73-.09,7.61S905.62,642.54,902.11,642Z" transform="translate(-0.01 0)"/><path class="cls-1" d="M982.12,343.47q41.75-17.84,95.61-10.61,99,13.29,85,118L1147.57,563.8q-1,7.82-8.67,8.57-41.54,6.36-92.79-.52-106.86-14.34-96.54-91.22,8.85-66,103.12-53.38a204,204,0,0,1,30.55,6.31l.11-.87q1.88-13.89-3.66-22.16t-22.9-10.59q-29.1-3.9-50.42,3.41-8.4,3.28-11.32-4.62l-14.33-44.82Q977.36,345.93,982.12,343.47Zm49.52,145.06q-2.4,17.81,22.37,21.13a105.81,105.81,0,0,0,18.91.77l4-29.54a91.81,91.81,0,0,0-18.83-4.74Q1033.73,472.88,1031.64,488.53Z" transform="translate(-0.01 0)"/><path class="cls-1" d="M1205.73,354.58a241.87,241.87,0,0,1,83.65-14.33q41.25,0,66.61,24.6t25.36,63.59v33.68q0,39.75-22,63t-58.66,23.28q-17.42,0-30.28-4.55v63.59q0,7.56-7.57,7.57H1208q-7.57,0-7.57-7.57V362.94Q1200.44,356.1,1205.73,354.58Zm82.89,133.61q21.57,0,21.57-24.23V426.49q0-24.21-22-24.22a51.6,51.6,0,0,0-17.79,3v79.86a52.84,52.84,0,0,0,18.22,3.06Z" transform="translate(-0.01 0)"/><path class="cls-1" d="M1498.46,604.63l-91.39-12.38q-7.75-1-6.7-8.8l25.28-186.66c.7-5.16,3.62-7.4,8.79-6.7l55.77,7.55q7.74,1,6.69,8.8l-7.5,55.38,27.89,3.77q34.47,4.67,54.73,25.36t15.61,55.16Q1583,580.19,1558,594.74T1498.46,604.63Zm-16.35-89-4,29.82,16.65,2.25q19,2.58,21-12.53,2-14.71-17-17.29Z" transform="translate(-0.01 0)"/><path class="cls-2" d="M1541.89,362.42a11.85,11.85,0,0,1,22.44,7.63h0c-.27.8-90.18,274.54-395,418.94-.29,1-1.29,2-3.19,2.94-13.63,6.61-12.39,10.22-27.94,23.63s-25-17-25-17c-7.9-20.09,12.38-29.87,23.16-26.63,2,.61,4.79,1.46,7.89,2.48,307.62-138.08,397.32-411.22,397.59-412ZM374,710c4.16-3.72,15.72-20.2,1.42-39.64s-29.58-25.34-44-30.21-33.25-10.16-43-17.75,7,20.41,13.77,44S339.58,736.18,374,710Zm55.18,55.6s-4.76-34.71-43.43-35-67.37,11.19-85.59-4.47,30.32,63,84.49,70.07,44.52-30.65,44.52-30.65Zm109,55s-12-38.91-57.76-25.37-77.65,37.19-102.06,25.38,47.41,62.94,112.76,51.78,47-51.78,47-51.78ZM653.6,863.8s-18.06-36.6-65.22-13.92-78,52.71-105.76,45.74S541.89,949.25,610.28,925s43.36-61.25,43.36-61.25Zm125.59,15.36s-27.08-31.41-74.51,3.15-75.5,72.15-107.35,72.45,75.69,37.54,146.22-4,35.64-71.59,35.64-71.59Zm113.29-7.83s-34.06-22.67-70.59,19.56-53.75,82.92-84.21,90.32,82.24,17.4,139.12-36.39,15.69-73.49,15.69-73.49Zm111.33-19.08s-35.4-14.88-66.15,28.85-43,83-71.62,94.48,81.41,2.43,130.57-54.92S1003.81,852.25,1003.81,852.25Zm90.89-31.43s-36-5.36-56,36.75-23.5,76.89-47.94,92,76.49-13.91,110.89-70.88-7-57.88-7-57.88ZM446.18,740.55s-31.68,6.7-40.68-29.23-5.41-66.32-23.34-78.27,62.48,8,81,56.21-16.94,51.29-16.94,51.29Zm98.32,51.19s-37.13,7.85-47.66-34.25-6.33-77.71-27.35-91.7,73.21,9.4,94.86,65.86-19.85,60.08-19.85,60.08ZM653,832.48s-39.88,8.44-51.19-36.79-6.8-83.47-29.38-98.5,78.64,10.09,101.9,70.74S653,832.48,653,832.48ZM769.65,851s-39.44,12.28-55.13-32.27-14.78-83.57-39-96.59,80.3,2.73,109.5,61.72S769.63,851,769.63,851Zm114.25-2.24s-36.2,17.77-58-22.85-26.79-78.4-52.09-87.33,77.86-9.42,114.88,43.1-4.77,67.08-4.77,67.08Zm109.54-16.94S961.11,853.43,935,817.4s-35.71-71.5-61-76.78,73.24-19,115.4,26.41,4.08,64.75,4.08,64.75ZM1089,802.93s-28.41,25.17-58.37-6.23-43.9-64.43-69.09-66.21,68.29-28,115,10.39,12.45,62,12.45,62Z" transform="translate(-0.01 0)"/></g></svg>