<?xml version="1.0"?>
<svg xmlns="http://www.w3.org/2000/svg" xmlns:xlink="http://www.w3.org/1999/xlink" xmlns:svgjs="http://svgjs.com/svgjs" version="1.1" width="512" height="512" x="0" y="0" viewBox="0 0 512 512" style="enable-background:new 0 0 512 512" xml:space="preserve" class=""><g>
<g xmlns="http://www.w3.org/2000/svg">
	<g>
		<polygon points="300.466,0.216 370.957,70.707 0,451.577 60.218,511.784 433.673,133.423 512,211.75 512,0.216   " fill="#ffffff" data-original="#000000" style=""/>
	</g>
</g>
<g xmlns="http://www.w3.org/2000/svg">
	<g>
		<path d="M376.204,285.251c-59.786,0-108.416,48.64-108.416,108.416s48.63,108.416,108.416,108.416    c59.776,0,108.416-48.64,108.416-108.416S435.981,285.251,376.204,285.251z M376.204,441.885    c-26.587,0-48.218-21.631-48.218-48.218c0-26.587,21.631-48.218,48.218-48.218c26.587,0,48.218,21.631,48.218,48.218    C424.423,420.254,402.792,441.885,376.204,441.885z" fill="#ffffff" data-original="#000000" style=""/>
	</g>
</g>
<g xmlns="http://www.w3.org/2000/svg">
	<g>
		<path d="M125.321,9.466c-59.786,0-108.416,48.64-108.416,108.416c0,59.776,48.63,108.416,108.416,108.416    c59.776,0,108.406-48.64,108.406-108.416C233.727,58.106,185.097,9.466,125.321,9.466z M125.321,166.1    c-26.587,0-48.218-21.631-48.218-48.218c0-26.587,21.631-48.218,48.218-48.218c26.587,0,48.208,21.631,48.208,48.218    C173.529,144.469,151.908,166.1,125.321,166.1z" fill="#ffffff" data-original="#000000" style=""/>
	</g>
</g>
<g xmlns="http://www.w3.org/2000/svg">
</g>
<g xmlns="http://www.w3.org/2000/svg">
</g>
<g xmlns="http://www.w3.org/2000/svg">
</g>
<g xmlns="http://www.w3.org/2000/svg">
</g>
<g xmlns="http://www.w3.org/2000/svg">
</g>
<g xmlns="http://www.w3.org/2000/svg">
</g>
<g xmlns="http://www.w3.org/2000/svg">
</g>
<g xmlns="http://www.w3.org/2000/svg">
</g>
<g xmlns="http://www.w3.org/2000/svg">
</g>
<g xmlns="http://www.w3.org/2000/svg">
</g>
<g xmlns="http://www.w3.org/2000/svg">
</g>
<g xmlns="http://www.w3.org/2000/svg">
</g>
<g xmlns="http://www.w3.org/2000/svg">
</g>
<g xmlns="http://www.w3.org/2000/svg">
</g>
<g xmlns="http://www.w3.org/2000/svg">
</g>
</g></svg>
